<svg width="129" height="142" viewBox="0 0 129 142" fill="none" xmlns="http://www.w3.org/2000/svg">
<g clip-path="url(#clip0_2999_205048)">
<path d="M119.998 78.0148L116.949 76.2384L116.913 79.6462V80.5525C116.913 80.6612 116.913 80.77 116.913 80.9512C116.913 81.2775 116.913 81.7125 116.877 82.0751C116.405 81.785 115.679 81.2775 114.59 80.2262C114.046 79.6824 112.557 78.0873 111.106 76.456C112.049 74.4258 112.884 72.2145 113.61 69.8943L114.699 69.568L115.752 64.6377L114.989 63.8402C115.098 63.1876 115.171 62.4989 115.28 61.8101L116.151 61.1938L116.369 56.8435L115.534 56.191C115.534 55.6834 115.497 55.1759 115.461 54.6684L116.26 53.9433L115.57 49.7381L114.699 49.3755C114.626 49.0493 114.554 48.723 114.445 48.3967L115.026 47.6717L113.574 43.2852L112.485 43.1039C112.34 42.8139 112.194 42.4876 112.013 42.1976L112.34 41.0013L110.307 37.6298L109 37.5211C108.855 37.3398 108.746 37.1948 108.601 37.0135L108.674 35.5997L105.951 32.6995L104.971 32.772H104.717C104.499 32.5545 104.282 32.3732 104.064 32.1557L104.173 30.8506L100.253 28.2042L99.3815 28.5668C97.3126 27.2254 94.7355 25.3041 94.6629 22.7664V22.7302C94.6629 22.4401 94.7355 22.3676 94.8081 22.2951C95.4615 21.6788 97.4578 21.5338 98.6556 21.6426L98.9823 21.6788L99.309 21.6063C99.7445 21.4976 103.447 20.6275 104.862 17.9811C105.225 17.2923 105.443 16.531 105.443 15.7697C105.443 15.1897 105.334 14.6096 105.116 13.9934C104.209 11.5282 102.576 10.9119 101.523 10.5131C100.87 10.2594 100.398 10.0781 99.8897 9.42558C99.8897 9.09931 99.926 8.73679 99.926 8.41052C99.926 3.66148 98.3652 2.10263 96.8045 1.26883C95.9333 0.797549 92.8481 -0.688793 90.3436 0.362522C89.5087 0.725044 88.4198 1.48634 87.9116 3.1902C87.6576 4.13275 87.1857 5.07531 85.6612 6.99668C80.9063 9.7881 78.7648 13.6671 77.821 16.4585C77.204 18.3074 76.7321 20.4463 76.7321 22.8027C76.7321 26.9354 78.184 31.6482 82.8664 36.1435C83.556 36.796 84.2093 37.3398 84.8264 37.8473H84.7538C84.7538 37.8473 82.9389 39.1887 81.9226 39.95C79.9989 38.8261 77.0951 37.086 76.3692 36.6148C71.1787 33.1708 61.8866 36.941 61.7777 36.9773C60.108 37.6661 56.8776 39.5149 55.3894 40.3487C52.8849 39.6599 45.5529 37.7023 38.7653 37.4123C32.0504 37.1223 20.3264 42.8864 11.6877 48.7593C11.5788 48.8318 1.34299 56.0822 0.326674 58.9824C0.108891 59.5987 0 60.215 0 60.795C0 63.3327 1.85115 65.8703 5.51716 68.408L5.66235 68.5167C6.53348 69.133 8.56612 71.8157 9.98171 74.0271C10.1269 74.4983 15.7167 90.4131 15.7167 90.4131C15.7167 90.4131 16.8782 91.7544 16.9508 91.8269C17.0234 91.8994 18.0397 93.2045 18.0397 93.2045C19.5279 95.0171 26.9325 104.189 28.3844 105.494C32.4133 109.155 35.3171 110.787 38.0394 111.004C39.2372 111.077 40.5439 110.751 41.8506 110.171C41.9232 110.243 42.141 110.424 42.141 110.424C51.6871 118.509 57.531 127.825 60.5073 139.825L61.0881 142.073L63.2659 141.239C72.9935 137.577 91.9406 120.792 96.0059 100.129C99.0912 98.7148 101.16 96.866 102.539 95.1621C103.737 95.8147 104.826 96.3584 105.625 96.7572L105.806 96.866C115.425 101.688 121.232 100.672 124.39 98.9686C127.367 97.3735 128.673 94.7996 128.927 92.9507C129.436 88.7092 127.403 82.2926 119.998 78.0148Z" fill="#D1D3D4"/>
<path d="M118.946 79.7912C118.837 81.35 119.817 88.0929 113.102 81.6763C112.34 80.9512 110.271 78.7036 108.637 76.746C114.517 65.0727 115.715 49.8106 107.802 39.3699C105.552 36.4335 103.41 34.3309 100.761 31.9382C99.4903 30.8144 92.7391 28.0592 92.5576 22.8389C92.4487 18.9237 98.837 19.5762 98.837 19.5762C98.837 19.5762 104.463 18.3074 103.156 14.7184C102.031 11.637 99.8533 13.3771 97.7844 10.1144C98.1836 4.49528 96.6591 3.58897 95.788 3.11769C94.9169 2.64641 90.7427 0.725044 89.8716 3.77023C89.4723 5.14782 88.7827 6.41664 87.0404 8.59178C86.9315 8.73679 81.8136 11.0207 79.7447 17.1836C77.8209 22.8389 78.438 29.1105 84.2818 34.6934C88.456 38.7174 91.6138 38.7536 93.2472 40.7475C93.6102 41.5088 93.6828 42.4876 93.102 43.6839C90.8516 40.8563 87.6212 39.4787 85.5522 39.8412L82.0314 42.4151C82.0314 42.4151 76.3328 39.0799 75.2075 38.3186C71.6504 35.926 64.6088 38.0286 62.5761 38.8624C60.5435 39.6962 55.6797 42.5601 55.6797 42.5601C55.6797 42.5601 46.6417 39.8049 38.6926 39.4787C32.994 39.2249 22.1774 44.1552 12.8854 50.4631C11.4698 51.4057 2.93997 57.8223 2.32292 59.6712C1.12512 63.0426 5.73485 66.0153 6.89636 66.8129C8.71121 68.0454 11.9417 73.1207 11.9417 73.1207L17.6403 89.3617L18.6566 90.4856L19.7818 91.8994C19.7818 91.8994 28.4931 102.703 29.9087 103.971C33.4659 107.198 36.0429 108.793 38.3297 108.938C41.0157 109.119 44.8631 106.038 47.0773 104.189C46.315 106.727 43.5927 108.793 43.5927 108.793C52.9574 116.732 59.4183 126.375 62.6487 139.281C72.6305 135.511 90.9605 118.364 94.2635 98.6786C98.1473 97.156 100.616 94.7271 102.031 92.4432C103.882 93.5307 105.697 94.437 106.822 94.9808C120.869 102.014 126.532 96.0322 126.967 92.6607C127.221 89.9055 126.205 83.9964 118.946 79.7912Z" fill="#3E8EDE"/>
<path d="M112.231 50.5719L113.646 51.1519L113.973 53.182L112.412 54.6684" fill="#3E8EDE"/>
<path d="M112.376 56.4085L114.191 57.8223L114.082 60.1062L111.977 61.5925" fill="#3E8EDE"/>
<path d="M111.468 63.1876L113.465 65.254L112.884 67.9367L110.089 68.7705" fill="#3E8EDE"/>
<path d="M109.617 44.6628L111.94 45.0615L112.666 47.2004L111.359 48.868" fill="#3E8EDE"/>
<path d="M107.185 39.4424L109.036 39.5874L110.089 41.255L109.363 43.7202" fill="#3E8EDE"/>
<path d="M102.975 34.9471L105.044 34.8021L106.532 36.361L106.423 38.6811" fill="#3E8EDE"/>
<path d="M97.6392 31.5394L99.9985 30.5244L101.995 31.8657L101.632 35.5272" fill="#3E8EDE"/>
<path d="M83.5559 82.5826C81.5232 78.9211 76.4416 78.1236 73.9734 81.93C72.2311 84.6127 73.4653 89.108 76.6594 91.8994C78.9461 93.8933 83.084 95.9959 87.7663 95.8509C90.5249 95.7421 94.6991 94.9446 96.6954 90.9206C92.3761 92.4069 87.0404 90.5581 84.8263 89.108C82.8299 87.7304 82.3218 84.3952 83.5559 82.5826Z" fill="white"/>
<path d="M120.361 84.5765C120.579 87.6579 120.216 89.543 118.692 89.833C116.296 90.3043 109.145 83.1264 107.076 80.915C105.915 82.4013 102.83 86.3166 101.559 87.5491C103.519 88.9992 106.931 91.2831 109.581 92.7332C112.231 94.2196 120.942 97.4097 123.592 92.9145C125.044 90.4493 123.374 86.8241 120.361 84.5765Z" fill="white"/>
<path d="M69.9445 57.6773C69.6541 57.8948 69.1459 58.0036 68.5652 58.0036C68.0933 57.9311 67.7303 57.496 67.5851 56.9523C67.44 56.2635 67.8392 55.5747 68.4563 55.3934C68.3111 54.9946 68.1296 54.5959 67.9844 54.1246C64.3184 54.2696 65.9881 59.8162 70.9971 58.4749C70.5615 58.2211 70.2348 57.9311 69.9445 57.6773Z" fill="white"/>
<path d="M92.2308 54.5234C92.1582 54.7046 92.0856 54.8496 92.0493 55.0309C92.4486 55.2847 92.5212 55.5747 92.5938 55.8647C92.6664 56.0822 92.8116 56.771 92.013 57.4235C91.5412 57.7861 91.0693 57.6048 90.7789 57.3873C90.5248 57.7498 90.3071 58.1486 90.053 58.5111C93.1745 59.5987 94.9531 54.6321 92.2308 54.5234Z" fill="white"/>
<path d="M93.1384 14.6096C96.0059 16.096 99.3089 14.6096 99.2 13.7758C99.3452 13.8846 103.628 14.5371 98.946 16.4585C96.0422 17.4736 93.574 16.0597 93.1384 14.6096Z" fill="#D1D3D4"/>
<path d="M54.6635 46.9829C54.0464 48.0342 53.4657 51.3694 53.6834 53.1095C51.4693 53.5446 46.2062 50.6806 43.3025 48.9043C40.7254 47.3454 35.7527 44.1915 28.7473 46.6566C36.3697 42.0526 42.9758 40.965 54.6635 46.9829Z" fill="#D1D3D4"/>
<path d="M62.6488 56.2272C61.9954 60.07 66.3874 63.1514 69.4 62.9339C67.5489 64.5652 64.3547 63.9127 62.2132 62.8976C58.8376 61.3025 57.1316 57.7136 62.6851 56.1547" fill="#D1D3D4"/>
<path d="M40.3988 66.5591C32.1956 63.4052 18.5116 62.4988 12.2322 66.3778C17.713 66.0153 28.6748 65.8341 37.7854 70.3293C30.4896 68.988 19.0923 70.0756 16.9145 71.5982C21.4516 71.3081 36.2972 74.1358 42.1047 77.7973C35.789 75.6222 22.722 74.9334 19.5279 76.7822C20.6894 79.8999 22.9761 86.0991 22.9761 86.0991C22.9761 86.0991 34.446 101.905 37.4224 102.123C43.0121 102.521 52.7035 93.2045 54.0828 90.2318C55.3895 87.3679 55.6798 84.6852 53.6835 80.625C52.1953 77.1447 44.21 68.0454 40.3988 66.5591Z" fill="#D1D3D4"/>
<path d="M67.5853 129.674C66.3875 125.179 63.1571 118.69 59.3096 115.028C59.3096 115.028 65.8431 119.705 71.0698 118.509C71.0698 118.509 69.0372 117.929 68.3839 113.107C68.3839 113.107 77.3855 119.415 83.4472 110.823C83.4109 110.823 78.2567 123.076 67.5853 129.674Z" fill="#D1D3D4"/>
<path d="M102.14 50.5719C102.394 48.3967 102.431 46.5116 102.285 44.8078L100.725 44.5177L102.104 43.2852C101.741 41.1463 101.051 39.4062 100.071 37.9561L98.075 38.3911L99.055 36.651C97.8572 35.3459 96.4053 34.3309 94.6993 33.5333L92.9571 34.3309L93.1749 32.7358C86.968 29.4006 83.6287 25.3403 86.1695 18.7062C86.8954 16.821 89.654 13.5221 91.7593 12.9058V12.8695C94.663 10.9482 95.1349 8.15675 95.1349 8.15675C95.1349 8.15675 95.0623 5.32908 94.1186 5.22032C93.32 5.11156 92.4126 5.32908 92.1585 6.05412C91.6504 7.39546 90.1622 10.1506 89.2911 11.1294C85.5887 12.1807 83.665 15.0084 82.6487 18.2349C81.0153 23.5277 81.7776 30.1619 89.5088 34.3309C92.8845 36.1435 97.7846 37.1223 97.7483 45.0978C97.7483 51.0431 94.8082 56.8072 93.2111 63.2239C92.9571 63.1876 92.5215 63.0426 92.2311 62.8976C91.8682 62.6801 90.9244 61.8101 90.9244 61.8101C89.8718 61.2663 88.311 60.8312 86.0606 61.2663C81.4509 62.1726 79.0916 66.9941 79.0916 66.9941C81.5961 53.9796 86.9317 56.771 88.9644 58.4024C88.4925 57.5323 87.6577 56.5172 87.2221 56.046C86.5688 55.3572 84.8265 53.9796 83.4109 54.3058C81.5961 54.7409 80.2531 57.1698 80.2531 57.1698C80.2531 57.1698 80.3257 52.6382 82.322 51.5869C84.6813 50.3181 87.331 53.9433 88.4562 55.6834C89.9807 54.8134 90.4889 52.9283 90.6703 52.312C90.6703 52.312 90.6703 46.1491 93.066 49.7018C92.9934 47.8167 90.9607 46.4029 90.017 46.3666C87.6214 42.9226 84.7176 44.3002 84.2458 49.303C82.2857 47.998 79.7812 47.6717 77.5308 51.4419C77.1678 49.1943 76.0426 46.6566 73.5381 44.6628C70.3802 42.1613 66.8231 43.9015 66.3876 44.1915C65.7342 44.6628 61.8504 45.3878 59.9993 49.5568C63.266 45.5691 66.8594 45.6778 69.3276 47.4179C70.0173 48.9043 69.9447 51.3332 70.5617 53.3995C71.1788 55.4659 73.284 56.8435 74.5544 57.6048C74.8448 57.7861 75.0989 57.8948 75.2804 58.0036C75.1715 58.4023 74.9537 59.6349 74.9537 59.6349C73.5381 66.1603 66.315 67.1754 64.8631 69.4955C62.5401 72.2507 64.3186 76.9997 64.8268 80.48C62.4312 78.8486 60.8704 76.9272 60.8704 76.9272C60.6526 79.6824 60.9793 82.0388 62.0319 84.649C64.5001 90.6668 71.5055 90.7031 71.5055 90.7031C68.5654 88.0204 68.7106 85.1928 69.1461 83.2351C69.9447 79.6099 73.7559 75.6584 79.1279 77.0723C81.0879 78.0511 85.6613 79.7187 87.2947 79.5374C87.9481 79.4649 88.7829 78.4136 89.6177 77.4348C88.8918 75.6947 88.8555 74.0633 88.8555 74.0633C89.5814 74.8246 90.3074 75.4046 90.997 75.8397C91.0696 75.7672 91.1785 75.6947 91.2511 75.6222C92.9208 74.4621 94.2638 73.2658 95.3527 71.9969C94.409 70.4018 93.8645 69.1693 93.8645 69.1693C94.8808 69.713 95.7519 70.1481 96.5505 70.4743C97.712 68.843 98.5105 67.1391 99.1276 65.3628C98.4016 64.529 97.712 63.7314 97.4942 63.4052L99.672 63.4777C100.108 61.8463 100.398 60.215 100.688 58.5474L99.055 57.206L101.015 56.8435C101.124 56.191 101.269 55.5747 101.378 54.9221C101.559 53.9796 101.741 53.0733 101.886 52.2032L100.289 51.0794L102.14 50.5719Z" fill="#D1D3D4"/>
<path d="M77.313 82.0025C77.313 82.0025 76.0426 86.3166 80.7249 90.3043C84.8991 93.8933 91.8318 93.422 91.8318 93.422C91.8318 93.422 85.9517 96.4672 79.4545 92.0082C72.7758 87.4041 74.0462 82.0025 77.313 82.0025Z" fill="#D1D3D4"/>
<path d="M122.358 92.0082C123.156 90.0143 121.741 87.3679 121.741 87.3679C122.576 91.2831 120.579 92.8057 118.256 92.552C112.086 91.9357 105.48 85.7003 105.48 85.7003L103.883 87.5491C112.267 93.7845 116.95 93.9295 118.184 94.0383C120.216 94.2196 121.886 93.1682 122.358 92.0082Z" fill="#D1D3D4"/>
</g>
<defs>
<clipPath id="clip0_2999_205048">
<rect width="129" height="142" fill="white"/>
</clipPath>
</defs>
</svg>
